<?xml version="1.0" encoding="utf-8"?>
<!-- Generator: Adobe Illustrator 28.0.0, SVG Export Plug-In . SVG Version: 6.00 Build 0)  -->
<svg version="1.0" id="katman_1" xmlns="http://www.w3.org/2000/svg" xmlns:xlink="http://www.w3.org/1999/xlink" x="0px" y="0px"
	 viewBox="0 0 1109.33 942.77" style="enable-background:new 0 0 1109.33 942.77;" xml:space="preserve">
<style type="text/css">
	.st0{fill:#2D061F;}
	.st1{fill:#F8FEF2;}
	.st2{fill:#F5DACE;}
	.st3{fill:#D7E6E2;}
	.st4{fill:#9CAAB9;}
	.st5{fill:#A28298;}
	.st6{fill:#B8CCD8;}
	.st7{fill:#FFFFFF;}
	.st8{fill:#531E3B;}
	.st9{fill:#C4CBD7;}
</style>
<path class="st0" d="M873.65,712.99c-29.99,61.29-79.71,108.34-153.57,96.22c-19.38-3.19-35.32-13.13-43.02-31.84
	c-0.15-0.36-0.55-0.54-0.91-0.41c-9.46,3.24-19.29,5.13-29.5,5.68c-6.31,0.35-12.62,0.61-18.93,0.78c-0.33,0.01-0.6,0.15-0.81,0.4
	c-27.58,32.72-67.53,50.03-110.23,50.32c-24.54,0.17-61.5-9.92-68.56-37.63c-1.5-5.85-1.23-12.5-0.55-18.65
	c0.04-0.36-0.35-0.62-0.67-0.44c-20.32,11.3-43.9,13.69-66.72,10.86c-24.6-3.05-44.84-16.68-42.74-44.38
	c1.3-17.33,5.57-29.68,11.45-49.07l11.63-31.82c0.18-0.48-0.14-1-0.65-1.06c-33.2-3.99-65.33-12.29-96.12-27.12
	c-37.76-18.18-74.1-46.99-93.17-85.16c-18.54-37.07-17.82-80.16,2.01-116.59c0.51-0.95,0.77-2.43,0.76-4.44
	c-0.07-24.36,2-48.5,6.23-72.42c5.1-28.84,15.34-58.32,29.91-83.78c0.53-0.93,0.37-1.72-0.46-2.39
	c-11.47-9.17-19.48-20.66-24.04-34.49c-10.48-31.78,2.31-69.76,30.7-87.41c31.87-19.81,72.56-10.01,92.85,21.45
	c0.39,0.59,0.88,0.7,1.47,0.32c23.2-14.67,48.41-23.94,75.64-27.81c0.4-0.05,0.67-0.44,0.59-0.84c-2.46-11.55-0.45-22.35,10.4-27.46
	c11.36-5.34,23.84-1.22,34.48,3.47c0.34,0.15,0.73-0.05,0.81-0.41c2.86-13.41,11.54-22.39,26.48-18.01
	c5.4,1.58,12.5,8.82,17.17,14.11c4.72,5.36,9.49,10.68,14.3,15.97c2.97,3.27,6.42,5.32,10.34,6.15
	c33.5,7.14,68.68,17.75,98.16,35.61c0.59,0.36,1.15,0.3,1.66-0.17c2.44-2.21,5.2-4.19,8.28-5.94c22.42-12.75,45.29-14.46,68.61-5.14
	c21.92,8.76,38.06,27.05,45.45,49.41c6.15,18.63,6.13,37.61-0.07,56.95c-5.23,16.3-13.89,27.99-25.73,38.96
	c-0.46,0.42-0.56,0.91-0.3,1.48l7.58,16.72c0.23,0.52,0.71,0.88,1.28,0.95c25.43,3.31,48.54,11.25,72.21,23.54
	c60.66,31.52,101.66,89.16,121.71,153.51c0.11,0.34,0.34,0.51,0.7,0.5c1.02-0.03,1.95-0.32,2.92-0.2
	c14.08,1.78,26.34,7.64,36.78,17.58c11.14,10.6,20.94,26.69,9.18,41.18c-0.46,0.56-0.54,1.34-0.22,1.99
	c7.3,14.71,5.66,28.07-4.77,40.6c-10.05,12.09-22.88,19.05-38.51,20.88c-0.28,0.04-0.51,0.25-0.57,0.53
	c-5.03,23.82-12.27,46.93-21.74,69.33C881.1,697.45,878.04,703.99,873.65,712.99z M190.64,389.72c-1.22,13.09-2.58,26.86-1.75,40.03
	c0.11,1.85-0.07,4.05-0.85,5.47c-9.91,17.96-16.3,39.44-15.43,60.16l1.79,16c9.05,67.95,85.08,111.99,144.32,127.01
	c18.17,4.61,35.83,8.15,53,10.62c2.37,0.34,4.05,1.46,5.04,3.35c0.16,0.3,0.18,0.65,0.07,0.97c-0.49,1.38-0.54,2.55-0.14,3.52
	c3.88,9.42,18.57,34.93,30.93,35.12c0.34,0.01,0.62-0.26,0.63-0.6c0.07-2.43,1.64-9.26,4.93-9.39c2.17-0.09,3.9,0.97,5.17,3.2
	c5.79,10.11,18.48,32.13,31.45,33.37c0.35,0.03,0.58-0.12,0.67-0.46c0.71-2.59,2.89-6.12,5.92-6.14c4.41-0.04,6.31,6.96,11.08,8.54
	c0.89,0.3,1.87-0.01,2.42-0.77c1.1-1.51,1.97-3.1,2.61-4.77c2.27-5.93,4.44-11.89,6.53-17.88c1.13-3.28,4.39-10.41,9.02-8.4
	c8.21,3.56,1.17,21.74-0.77,27.3c-5.21,14.92-11.13,30.01-17.78,45.27c-3.7,6.57-6.06,13.62-7.07,21.15
	c-1.03,7.68,1.02,14.56,6.17,20.65c2.95,3.27,6.74,5.48,11.37,6.61c4.32,2.56,8.9,4.38,13.74,5.46c4.19,1.81,8.69,2.79,13.48,2.94
	l0.73,0.22c7.84,0.91,16.01,0.8,24.5-0.34c30.29-4.07,55.95-15.16,77.33-37.21c8.42-8.69,13.79-19.01,18.78-30.3
	c1.6-3.61,4.09-8.49,7.8-7.43c9.42,2.69,1.13,20.2-1.68,25.04c-0.18,0.31,0.04,0.7,0.4,0.7c13.14,0.15,26.48-2.49,38.99-6.38
	c0.24-0.08,0.4-0.3,0.39-0.55c-0.14-6.53-0.31-13.08-0.5-19.66c-0.09-2.93-0.32-5.32-0.68-7.15c-0.76-7.07-3.25-14.27-2-20.85
	c0.06-0.29,0.23-0.47,0.52-0.54c6.1-1.47,9.57,3.71,12.63,8.61c1.86,5.69,3.05,11.68,3.58,17.96c1.11,13.26,0.31,26.1,7,38.66
	c0.81,1.51,2.68,3.91,5.61,7.18c4.13,3.41,8.95,5.35,14.46,5.82l12.76,2.93c4.01,0.87,8.19,1.18,12.56,0.93
	c23.28,0.53,43.86-5.26,61.75-17.36c18.01-12.19,33.15-28.3,45.4-48.34c19.57-32.02,33.35-66.29,41.34-102.8
	c5.1-23.3,6.49-47.95,5.1-71.55c-1.28-21.62-5.75-42.72-13.4-63.29c-7.58-21.71-18.28-42.46-32.09-62.27
	c-33.51-48.05-82.28-79.38-139.67-90.47c-0.38-0.07-0.53,0.08-0.44,0.45c9.58,42.1,10.9,87.31,2.71,129.86
	c-0.43,2.24-0.39,3.96,0.14,5.15c6.39,14.52,11.65,27.82,11.38,44.06c-0.22,13.33-9.81,26.78-24.83,20.85
	c-0.45-0.18-0.96,0.06-1.12,0.51c-6.25,17.21-15.93,32.07-29.05,44.58c-7.99,7.62-16.3,14.67-24.91,21.15
	c-4.85,3.04-9.59,6-14.21,8.88c-14.46,9.01-29.5,16.89-45.13,23.66c-9.91,4.29-60.5,24.56-67.52,14.21
	c-3.11-4.59,1.81-8.76,5.88-9.79c34.67-8.77,66.65-20.39,97.09-39.33c32.46-20.2,60.43-44.07,69.22-83.07
	c0.3-1.33,0.94-2.49,1.93-3.48c4.6-4.62,8.89,3.38,11.29,7.04c0.95,1.45,2.09,1.95,3.43,1.5c3.15-1.05,3.69-4.33,3.74-7.45
	c0.2-14.07-5.57-28.87-12.69-42.45c-0.21-0.39-0.33-0.79-0.38-1.19c-0.09-0.65-0.11-1.08-0.06-1.29c8.59-38.93,8.05-82,1.04-120.83
	c-2.45-13.59-5.82-25.31-11.99-36.62c-0.33-0.61-1.03-0.92-1.7-0.74c-8.12,2.12-15.63,2.93-22.83-2.27
	c-3.92-2.84-1.73-8.02,2.38-8.61c11.86-1.71,18.99-4.09,27.1-13.37c13.55-12.58,20.98-28.79,22.28-48.63
	c0.48-7.23-0.03-14.42-1.52-21.57c-3.41-18.11-12.85-32.02-28.31-41.75c-24.28-15.28-52.34-12.7-75.12,4.01
	c-2.88,2.11-5.78,4.24-8.7,6.37c-0.46,0.33-0.89,0.3-1.3-0.1c-5.88-5.9-12.48-9.72-21.19-13.75c-17.74-8.21-36.08-14.74-55.01-19.6
	c-5.45-1.39-10.89-2.8-16.34-4.21c-11.42-2.96-18.52-5.71-26.07-13.47c-5.85-6.01-11.42-12.27-16.72-18.76
	c-2-2.47-8.76-8.38-12.15-5.22c-6.63,6.19-2.76,18.32-0.89,25.61c0.25,1-0.49,1.96-1.52,1.97c-1.19,0.01-2.44-0.35-3.75-1.07
	c-5.59-3.08-11.15-6.2-16.68-9.35c-5.39-3.07-18.96-7.86-24.25-3.01c-3.96,3.63-2.24,11.21,0.65,14.92
	c2.47,3.17,5.22,6.08,8.23,8.73c2.7,2.38-0.22,5.56-2.5,5.29c-24.5-2.89-52.66,5.67-74.47,16.47
	c-73.93,36.6-125.75,105.34-139.8,186.98C192.91,368.01,191.75,377.63,190.64,389.72z M197.5,222.07c0.84,5.27,2.41,10.48,4.7,15.63
	c3.46,7.38,8.29,13.93,14.49,19.66c0.47,0.43,1.21,0.36,1.59-0.16l16.22-22.4c5.03-6.71,10.55-12.96,16.55-18.74l15.36-14.77
	c9.29-8.04,19.02-15.49,29.2-22.35c0.27-0.18,0.36-0.53,0.22-0.82c-1.03-2.07-2.45-4.12-4.26-6.14
	c-14.48-16.2-35.49-22.61-56.17-16.17C206.84,164.72,193.95,193.82,197.5,222.07z M908.94,554.37l0.42,13.56
	c-0.02,13.3-0.41,26.61-2.44,39.79c-0.04,0.26,0.19,0.49,0.45,0.43c11.77-2.66,20.95-9.07,27.55-19.24
	c3.11-4.22,4.27-8.8,3.48-13.74c-0.8-5.09-4.21-7.31-8.3-9.68c-0.24-0.14-0.44-0.36-0.57-0.61c-1.21-2.37-0.99-4.36,0.68-5.97
	c5.99-5.78,11.6-10.88,7.02-20.21c-7.32-11.74-20.59-19.48-33.87-22.1c-0.28-0.05-0.52,0.17-0.49,0.45c0.2,1.49,0.46,2.93,0.78,4.33
	C906.14,532.27,907.91,543.26,908.94,554.37z M364.19,767.16c0.84-3.92,2.8-14.15,6.08-16.45c2.85-1.99,5.5-2.1,7.95-0.33
	c6.03,4.35,1.39,15.58-0.98,20.89c-0.24,0.54,0.09,1.16,0.66,1.26c18.28,3.19,39.57,2.5,56.32-5.63
	c12.93-6.27,25.16-17.02,29.86-31.12c0.22-0.67-0.12-1.39-0.78-1.62c-4.86-1.75-9.19-1.2-14.14-1.03c-2.6,0.09-5.94-0.83-10.01-2.74
	c-9.46-4.45-16.41-13.61-23.15-22.1c-0.53-0.66-1.14-0.98-1.84-0.95c-20.54,0.82-33.58-14.68-42.9-30.76
	c-0.12-0.21-0.44-0.19-0.52,0.04c-6.4,18.3-12.52,36.83-16.83,55.77c-1.73,7.59-2.63,17.8,0.41,25c1.6,3.77,5.02,8.55,8.93,10.25
	C363.64,767.81,364.1,767.58,364.19,767.16z"/>
<path class="st1" d="M710.03,220.82c0.08,0.69,0.04,1.24-0.11,1.67c-0.13,0.35-0.37,0.49-0.73,0.42c-0.41-0.08-0.72,0-0.94,0.24
	c-0.03,0.04-0.06,0.08-0.08,0.12c-3.14,6.95-13.4,12.92-19.54,5.17c-8.26-10.41-18.64-15.07-31.72-16.83
	c-10.98-1.47-21.19-0.01-30.64,4.4c-7.25,3.38-13.56,8.97-15.21,17.15c-1.03,5.13,1.58,8.34,7.84,9.61
	c-4.01,4.31-6.19,9.01-6.53,14.11c-0.73,11.06,8.38,15.52,17.47,10.01c-0.01,3.08-0.16,5.13-0.46,6.15
	c-2.38,7.94-5.28,15.27,1.01,21.1c2.99,2.76,5.42,4.9,7.5,8.52c0.87,1.51,1.74,3.08,2.63,4.69c3.75,5.4,7.88,10.52,12.41,15.36
	c5.57,5.95,8.44,9.02,8.61,9.22c8.95,10.54,14.27,22.44,16.93,36.72c6.42,34.35,1.97,71-8.55,104.08
	c-4.52,14.22-9.73,26.48-15.63,36.78c-6.82,11.9-13.81,21.75-20.97,29.54c-30.42,33.06-73.36,52.9-116.66,66.13
	c-24.89,7.6-49.89,11.96-74.99,13.07c-20.63,0.91-41.21,0.28-61.74-1.91c-35.15-3.74-66.85-10.1-98.75-21.26
	c-10.11-3.54-19.86-7.87-29.25-12.99c-2.45-1.33-7.95-4.47-16.51-9.41c-17.07-9.85-31.19-22.97-42.38-39.36
	c-2.76-4.05-5.73-9.46-8.74-14.23c0.64-0.53,1.61-0.44,2.92,0.27c1.23,0.67,2.08,1.08,2.54,1.24c16.31,5.74,55.15,10.38,56.86-16.97
	c0.57-9.01-2.64-12.82-8.67-18.83c-0.86-0.85-2.44-1.68-4.74-2.48c-2.13-0.75-3.76-1.43-4.89-2.05c-2.28-1.26-4.14-2.77-6.74-3.22
	c-13.66-2.39-28.62-1.84-40.6,5.61c-1.91,1.19-3.23,2.79-4.7,4.48c-0.09,0.03-0.18,0.01-0.27-0.04c-0.2-0.09-0.28-0.25-0.24-0.47
	c0.83-4.89,2.54-9.63,3.63-14.33c1.15-4.97,2.73-9.19,4.72-12.68c2.19-3.84,4.25-8.02,6.76-11.42c3.13-4.25,6.55-8.24,10.27-11.99
	c4.19-4.22,6.73-7.06,7.62-8.51c7.41-12.13,5.94-27.17-5.92-35.48c-3.21-2.25-7.28-3.09-12.21-2.5c1.11-12.09,2.27-21.71,3.5-28.84
	c14.05-81.64,65.87-150.38,139.8-186.98c21.81-10.8,49.97-19.36,74.47-16.47c2.28,0.27,5.2-2.91,2.5-5.29
	c-3.01-2.65-5.76-5.56-8.23-8.73c-2.89-3.71-4.61-11.29-0.65-14.92c5.29-4.85,18.86-0.06,24.25,3.01
	c5.53,3.15,11.09,6.27,16.68,9.35c1.31,0.72,2.56,1.08,3.75,1.07c1.03-0.01,1.77-0.97,1.52-1.97c-1.87-7.29-5.74-19.42,0.89-25.61
	c3.39-3.16,10.15,2.75,12.15,5.22c5.3,6.49,10.87,12.75,16.72,18.76c7.55,7.76,14.65,10.51,26.07,13.47
	c5.45,1.41,10.89,2.82,16.34,4.21c18.93,4.86,37.27,11.39,55.01,19.6c8.71,4.03,15.31,7.85,21.19,13.75c0.41,0.4,0.84,0.43,1.3,0.1
	c2.92-2.13,5.82-4.26,8.7-6.37c22.78-16.71,50.84-19.29,75.12-4.01C697.18,188.8,706.62,202.71,710.03,220.82z M433.81,179.7
	c-0.54-1.66-3.35-2.23-6.29-1.27c-2.93,0.95-4.87,3.07-4.32,4.74c0.54,1.66,3.35,2.23,6.29,1.27
	C432.42,183.49,434.36,181.37,433.81,179.7z M428.16,211.1c2.78,0.64,5.78-2.08,6.7-6.07c0.92-3.99-0.58-7.75-3.36-8.39
	c-2.78-0.64-5.78,2.08-6.7,6.07C423.88,206.7,425.38,210.46,428.16,211.1z M442.78,206.36c1.66,1.3,4.51,0.46,6.37-1.9
	c1.85-2.36,1.99-5.33,0.32-6.63c-1.66-1.3-4.51-0.46-6.37,1.9C441.26,202.09,441.12,205.06,442.78,206.36z M555.31,224.07
	c2.41-2.11,1.62-6.93-1.75-10.76c-3.37-3.82-8.05-5.2-10.45-3.09c-2.41,2.11-1.62,6.93,1.75,10.76
	C548.23,224.81,552.91,226.19,555.31,224.07z M571.44,351.83c2.94-1.25,3.7-6.07,1.7-10.76c-2-4.69-6.01-7.47-8.94-6.22
	c-2.94,1.25-3.7,6.07-1.7,10.76C564.5,350.3,568.51,353.08,571.44,351.83z M233.59,481.03c8.37,3.14,18.16-0.33,23.64-7.08
	c9.31-11.46,9.27-29.46,5.62-42.3c-5.34-18.81-25.85-18.16-37.74-6.8c-0.87,0.83-1.74,2.01-2.63,3.56
	C212.96,444.99,211.82,472.86,233.59,481.03z M494.98,512.47c14.07-6.58,18.75-20.28,17.61-34.82
	c-1.17-15.08-9.68-29.12-25.94-31.09c-9.98-1.21-21.68,3.08-26.96,12.39c-5.03,8.85-5.49,21.52-3.58,31.69
	C459.55,509.04,476.74,521,494.98,512.47z M331.26,526.08c0.47,6.08-1.4,12.27-8.35,13.31c-4.34,0.66-8.23-0.95-11.66-4.82
	c-2.01-2.25-6.34-9.19-9.4-3.27c-1.48,2.87,0.7,6.89,2.52,9.11c7.45,9.1,22.06,11.91,31.07,3.69c0.27-0.25,0.54-0.24,0.8,0.02
	c5.34,5.32,11.06,8.58,17.17,9.79c7.08,1.39,17.82-0.41,22.66-6.88c3.61-4.8-0.63-10.24-5.68-6.64c-5.86,4.18-10.75,5.75-17.76,3.08
	c-7.63-2.91-11.48-8.59-11.55-17.05c5.12-1.21,9.64-2.67,13.57-4.36c8.96-3.86,17.56-12.82,18.7-22.93
	c1.31-11.73-11.32-21.8-21.41-24.85c-11.47-3.47-25.71-3.71-36.66,1.74c-10.37,5.16-15.76,17.2-11.31,28.06
	C308.9,516.11,318.7,522.83,331.26,526.08z M544.5,567.11c20.22-6.77,22.54-26.08,6.6-39.15c-14-11.48-32.45-14.65-49.86-12.13
	c-13.55,1.96-29.05,11.17-28.71,26.67c0.3,13.13,11.66,22.4,23.33,25.74C512.13,572.89,528.34,572.51,544.5,567.11z"/>
<path class="st1" d="M266.41,201.29c-1.43-1.13-2.83-1.81-4.22-2.05c-1.04-1.75-1.84-2.82-2.39-3.19
	c-22.82-15.57-51.85-6.75-60.71,19.78c-0.2,0.59-0.36,1.64-0.48,3.15c-0.11,1.26-0.48,2.29-1.11,3.09
	c-3.55-28.25,9.34-57.35,37.9-66.26c20.68-6.44,41.69-0.03,56.17,16.17c1.81,2.02,3.23,4.07,4.26,6.14
	c0.14,0.29,0.05,0.64-0.22,0.82C285.43,185.8,275.7,193.25,266.41,201.29z"/>
<path class="st2" d="M433.81,179.7c0.55,1.66-1.39,3.78-4.32,4.74c-2.93,0.96-5.74,0.39-6.29-1.27c-0.55-1.66,1.39-3.78,4.32-4.74
	C430.46,177.48,433.27,178.05,433.81,179.7z"/>
<path class="st3" d="M262.19,199.24c-7.77-2.29-13.39-3.75-20.95-1.95c-13.94,3.31-24.45,11.13-31.54,23.46
	c-2.24,3.9-3.99,8.85-5.8,13.33c-0.17,0.43-0.32,1.08-0.44,1.93c-0.16,1.11-0.58,1.67-1.26,1.69c-2.29-5.15-3.86-10.36-4.7-15.63
	c0.63-0.8,1-1.83,1.11-3.09c0.12-1.51,0.28-2.56,0.48-3.15c8.86-26.53,37.89-35.35,60.71-19.78
	C260.35,196.42,261.15,197.49,262.19,199.24z"/>
<path class="st4" d="M262.19,199.24c1.39,0.24,2.79,0.92,4.22,2.05l-15.36,14.77c-12.33-2.55-20.81,7.16-16.55,18.74l-16.22,22.4
	c-0.38,0.52-1.12,0.59-1.59,0.16c-6.2-5.73-11.03-12.28-14.49-19.66c0.68-0.02,1.1-0.58,1.26-1.69c0.12-0.85,0.27-1.5,0.44-1.93
	c1.81-4.48,3.56-9.43,5.8-13.33c7.09-12.33,17.6-20.15,31.54-23.46C248.8,195.49,254.42,196.95,262.19,199.24z"/>
<path class="st3" d="M428.16,211.1c-2.78-0.64-4.28-4.4-3.36-8.39c0.92-3.99,3.92-6.71,6.7-6.07c2.78,0.64,4.28,4.4,3.36,8.39
	C433.94,209.02,430.94,211.74,428.16,211.1z"/>
<path class="st2" d="M442.78,206.36c-1.67-1.31-1.53-4.28,0.32-6.63c1.85-2.36,4.7-3.2,6.37-1.9c1.67,1.31,1.53,4.28-0.32,6.63
	C447.3,206.83,444.45,207.67,442.78,206.36z"/>
<path class="st3" d="M555.31,224.07c-2.4,2.12-7.08,0.74-10.45-3.09c-3.37-3.83-4.16-8.65-1.75-10.76c2.4-2.12,7.08-0.74,10.45,3.09
	C556.93,217.14,557.72,221.96,555.31,224.07z"/>
<path class="st3" d="M710.03,220.82c1.49,7.15,2,14.34,1.52,21.57c-1.3,19.84-8.73,36.05-22.28,48.63
	c-8.52,1.48-16.73,2.51-24.63,3.1c-2.65,0.2-5.22-0.03-7.93-0.1c-2.92-0.07-5.38,0.82-8.12,1.7c-0.3,0.09-0.54,0.32-0.65,0.61
	c-1.7,4.44-2.58,7.62-6.66,9.22c-0.27,0.11-0.36,0.3-0.27,0.57c0.17,0.47,0,0.88-0.49,1.23c-0.89-1.61-1.76-3.18-2.63-4.69
	c-2.08-3.62-4.51-5.76-7.5-8.52c-6.29-5.83-3.39-13.16-1.01-21.1c0.3-1.02,0.45-3.07,0.46-6.15l4.59-4.38
	c0.29-0.28,0.75-0.23,0.99,0.09c5.49,7.35,11.69,10.32,20.47,5.9c11.48-5.78,12.46-20.26,3.73-29.07c-5.9-5.96-14.06-7.9-22.39-6.54
	c-7.32,1.2-13.43,4.49-18.33,9.88c-6.26-1.27-8.87-4.48-7.84-9.61c1.65-8.18,7.96-13.77,15.21-17.15c9.45-4.41,19.66-5.87,30.64-4.4
	c13.08,1.76,23.46,6.42,31.72,16.83c6.14,7.75,16.4,1.78,19.54-5.17c0.02-0.04,0.05-0.08,0.08-0.12c0.22-0.24,0.53-0.32,0.94-0.24
	c0.36,0.07,0.6-0.07,0.73-0.42C710.07,222.06,710.11,221.51,710.03,220.82z"/>
<path class="st5" d="M251.05,216.06c-6,5.78-11.52,12.03-16.55,18.74C230.24,223.22,238.72,213.51,251.05,216.06z"/>
<path class="st5" d="M629.84,266.89c-9.09,5.51-18.2,1.05-17.47-10.01c0.34-5.1,2.52-9.8,6.53-14.11c4.9-5.39,11.01-8.68,18.33-9.88
	c8.33-1.36,16.49,0.58,22.39,6.54c8.73,8.81,7.75,23.29-3.73,29.07c-8.78,4.42-14.98,1.45-20.47-5.9c-0.24-0.32-0.7-0.37-0.99-0.09
	L629.84,266.89z"/>
<path class="st6" d="M689.27,291.02c-8.11,9.28-15.24,11.66-27.1,13.37c-4.11,0.59-6.3,5.77-2.38,8.61
	c7.2,5.2,14.71,4.39,22.83,2.27c0.67-0.18,1.37,0.13,1.7,0.74c6.17,11.31,9.54,23.03,11.99,36.62c7.01,38.83,7.55,81.9-1.04,120.83
	c-0.05,0.21-0.03,0.64,0.06,1.29c0.05,0.4,0.17,0.8,0.38,1.19c7.12,13.58,12.89,28.38,12.69,42.45c-0.05,3.12-0.59,6.4-3.74,7.45
	c-1.34,0.45-2.48-0.05-3.43-1.5c-2.4-3.66-6.69-11.66-11.29-7.04c-0.99,0.99-1.63,2.15-1.93,3.48c-8.79,39-36.76,62.87-69.22,83.07
	c-30.44,18.94-62.42,30.56-97.09,39.33c-4.07,1.03-8.99,5.2-5.88,9.79c7.02,10.35,57.61-9.92,67.52-14.21
	c15.63-6.77,30.67-14.65,45.13-23.66c4.62-2.88,9.36-5.84,14.21-8.88c-1.16,2.47-2.46,4.81-3.91,7.01
	c-3.13,4.78-6.57,9.34-10.31,13.69c-25.32,29.42-55.79,52.07-86.9,74.88c-19.32,14.17-37.03,29.21-56.13,46.34
	c-2.37,2.13-7.68,6.49-15.93,13.1c6.65-15.26,12.57-30.35,17.78-45.27c1.94-5.56,8.98-23.74,0.77-27.3
	c-4.63-2.01-7.89,5.12-9.02,8.4c-2.09,5.99-4.26,11.95-6.53,17.88c-0.64,1.67-1.51,3.26-2.61,4.77c-0.55,0.76-1.53,1.07-2.42,0.77
	c-4.77-1.58-6.67-8.58-11.08-8.54c-3.03,0.02-5.21,3.55-5.92,6.14c-0.09,0.34-0.32,0.49-0.67,0.46
	c-12.97-1.24-25.66-23.26-31.45-33.37c-1.27-2.23-3-3.29-5.17-3.2c-3.29,0.13-4.86,6.96-4.93,9.39c-0.01,0.34-0.29,0.61-0.63,0.6
	c-12.36-0.19-27.05-25.7-30.93-35.12c-0.4-0.97-0.35-2.14,0.14-3.52c0.11-0.32,0.09-0.67-0.07-0.97c-0.99-1.89-2.67-3.01-5.04-3.35
	c-17.17-2.47-34.83-6.01-53-10.62c-59.24-15.02-135.27-59.06-144.32-127.01c2.56-1.25,3.99,1.92,5.54,3.39
	c1.65,1.57,3.11,3.01,4.36,4.32c3.01,4.77,5.98,10.18,8.74,14.23c11.19,16.39,25.31,29.51,42.38,39.36
	c8.56,4.94,14.06,8.08,16.51,9.41c9.39,5.12,19.14,9.45,29.25,12.99c31.9,11.16,63.6,17.52,98.75,21.26
	c20.53,2.19,41.11,2.82,61.74,1.91c25.1-1.11,50.1-5.47,74.99-13.07c43.3-13.23,86.24-33.07,116.66-66.13
	c7.16-7.79,14.15-17.64,20.97-29.54c5.9-10.3,11.11-22.56,15.63-36.78c10.52-33.08,14.97-69.73,8.55-104.08
	c-2.66-14.28-7.98-26.18-16.93-36.72c-0.17-0.2-3.04-3.27-8.61-9.22c-4.53-4.84-8.66-9.96-12.41-15.36
	c0.49-0.35,0.66-0.76,0.49-1.23c-0.09-0.27,0-0.46,0.27-0.57c4.08-1.6,4.96-4.78,6.66-9.22c0.11-0.29,0.35-0.52,0.65-0.61
	c2.74-0.88,5.2-1.77,8.12-1.7c2.71,0.07,5.28,0.3,7.93,0.1C672.54,293.53,680.75,292.5,689.27,291.02z"/>
<path class="st3" d="M571.44,351.83c-2.93,1.25-6.94-1.53-8.94-6.22c-2-4.69-1.24-9.51,1.7-10.76c2.93-1.25,6.94,1.53,8.94,6.22
	C575.14,345.76,574.38,350.58,571.44,351.83z"/>
<path class="st1" d="M880.56,492.35c-0.49-0.07-0.6,0.35-0.34,1.26c0.15,0.54,0.37,1.07,0.65,1.58c0.15,0.29,0.22,0.6,0.19,0.93
	c-0.25,2.63-0.85,4.69-0.27,7.35c2.22,10.28,2.81,20.67,1.77,31.18c-0.08,0.86-0.67,2.57-1.76,5.14c-3.07,4.34-6.42,5.08-10.03,2.21
	c-2.86-2.28-4.86-6.58-6.64-10.05c-0.05-0.1-0.14-0.17-0.24-0.2c-0.33-0.11-0.53,0.03-0.59,0.4c-0.33,2.07-0.49,4.15-0.5,6.24
	c-0.04,15.43-1.68,30.67-4.93,45.73c-3.49,16.16-10.3,30.07-20.45,41.73c-2.83,3.25-0.43,11.06,0.71,14.5
	c1.61,8.97,0.82,19.62-0.09,28.66c-1.09,10.82-4.87,21.57-11.34,32.24c-11.84,19.56-29.66,35.15-49.54,46.18
	c-15.33,8.51-31.3,15.59-47.9,21.24c-5.68,1.93-11.3,3.11-16.85,3.53c-2.63-3.24-6.6-5.17-10.15-2.02
	c-3.68,3.26-2.08,10.99-1.67,15.83c-2.93-3.27-4.8-5.67-5.61-7.18c-6.69-12.56-5.89-25.4-7-38.66c-0.53-6.28-1.72-12.27-3.58-17.96
	c-0.37-4.62-2.28-9.8-5.71-15.55c-5.71-9.59-8.26-16.22-12.72-24.36c-0.64-1.16-2.24-1.33-3.11-0.33
	c-4.73,5.47-10.38,11.63-16.98,14.98c-0.36,0.18-0.79-0.06-0.82-0.47c-0.36-6.19,1.2-12.33,0.35-18.34
	c-0.51-3.58-3.7-6.23-7.31-5.22c-6.36,1.77-10.41,14.8-12.63,20.41c-4.38,11.08-7.58,18.49-11.62,27.66
	c-8.36,17.59-18.16,33.35-31.21,48.36c-4.43,5.1-9.34,9.59-14.71,13.48c-14.91,8.24-29.72,14.44-46.66,18.89
	c-3.37,0.89-6.29,0.88-8.76-0.02c-0.82-0.79-1.73-1.4-2.73-1.84c-0.21-3.79-2.17-6.55-5.88-8.27c-1.75-0.81-6.16-1.8-13.23-2.95
	c-2.26-0.37-3.95-0.53-5.07-0.48c-5.64-7.08-11.99-2.51-14.38,3.98c-1.25,3.39-2.13,7.03-2.62,10.9c-5.15-6.09-7.2-12.97-6.17-20.65
	c1.01-7.53,3.37-14.58,7.07-21.15c8.25-6.61,13.56-10.97,15.93-13.1c19.1-17.13,36.81-32.17,56.13-46.34
	c31.11-22.81,61.58-45.46,86.9-74.88c3.74-4.35,7.18-8.91,10.31-13.69c1.45-2.2,2.75-4.54,3.91-7.01
	c8.61-6.48,16.92-13.53,24.91-21.15c13.12-12.51,22.8-27.37,29.05-44.58c0.16-0.45,0.67-0.69,1.12-0.51
	c15.02,5.93,24.61-7.52,24.83-20.85c0.27-16.24-4.99-29.54-11.38-44.06c-0.53-1.19-0.57-2.91-0.14-5.15
	c8.19-42.55,6.87-87.76-2.71-129.86c-0.09-0.37,0.06-0.52,0.44-0.45c57.39,11.09,106.16,42.42,139.67,90.47
	C862.28,449.89,872.98,470.64,880.56,492.35z M850.77,481.36c3.02-1.7,3.16-7.16,0.31-12.2c-2.85-5.03-7.6-7.72-10.62-6.01
	c-3.02,1.7-3.16,7.16-0.32,12.2C843,480.38,847.75,483.07,850.77,481.36z M777.72,629.92c3.1-0.71,4.62-5.59,3.4-10.9
	c-1.21-5.32-4.71-9.05-7.81-8.34c-3.1,0.71-4.62,5.59-3.4,10.9C771.13,626.9,774.63,630.63,777.72,629.92z M746.84,629.12
	c2.44,0.06,4.5-3.09,4.6-7.02c0.09-3.94-1.81-7.18-4.25-7.24c-2.44-0.06-4.5,3.09-4.6,7.02C742.5,625.83,744.4,629.07,746.84,629.12
	z"/>
<path class="st3" d="M176.28,487.14c-1.34,1.73-2.1,3.96-2.28,6.67c-0.03,0.47-0.13,0.82-0.3,1.07c-0.32,0.48-0.68,0.65-1.09,0.5
	c-0.87-20.72,5.52-42.2,15.43-60.16c0.78-1.42,0.96-3.62,0.85-5.47c-0.83-13.17,0.53-26.94,1.75-40.03c4.93-0.59,9,0.25,12.21,2.5
	c11.86,8.31,13.33,23.35,5.92,35.48c-0.89,1.45-3.43,4.29-7.62,8.51c-3.72,3.75-7.14,7.74-10.27,11.99
	c-2.51,3.4-4.57,7.58-6.76,11.42c-1.99,3.49-3.57,7.71-4.72,12.68c-1.09,4.7-2.8,9.44-3.63,14.33c-0.04,0.22,0.04,0.38,0.24,0.47
	C176.1,487.15,176.19,487.17,176.28,487.14z"/>
<path class="st0" d="M233.59,481.03c-21.77-8.17-20.63-36.04-11.11-52.62c0.89-1.55,1.76-2.73,2.63-3.56
	c11.89-11.36,32.4-12.01,37.74,6.8c3.65,12.84,3.69,30.84-5.62,42.3C251.75,480.7,241.96,484.17,233.59,481.03z M236.45,426.56
	c-2.25-3.07-7.01-3.42-10.63-0.77c-3.61,2.65-4.72,7.29-2.48,10.36c2.25,3.07,7.01,3.42,10.63,0.77
	C237.59,434.28,238.7,429.64,236.45,426.56z"/>
<path class="st7" d="M236.45,426.56c2.25,3.08,1.14,7.72-2.48,10.36c-3.62,2.65-8.38,2.3-10.63-0.77
	c-2.25-3.08-1.14-7.72,2.48-10.36C229.44,423.14,234.2,423.49,236.45,426.56z"/>
<path class="st0" d="M494.98,512.47c-18.24,8.53-35.43-3.43-38.87-21.83c-1.91-10.17-1.45-22.84,3.58-31.69
	c5.28-9.31,16.98-13.6,26.96-12.39c16.26,1.97,24.77,16.01,25.94,31.09C513.73,492.19,509.05,505.89,494.98,512.47z M476.63,456.81
	c-2.24-3.7-7.6-4.54-11.98-1.89c-4.38,2.65-6.12,7.8-3.88,11.49c2.24,3.7,7.6,4.54,11.98,1.89
	C477.13,465.66,478.87,460.51,476.63,456.81z"/>
<path class="st7" d="M476.63,456.81c2.24,3.69,0.5,8.84-3.88,11.49c-4.38,2.65-9.74,1.81-11.98-1.89c-2.24-3.69-0.5-8.84,3.88-11.49
	C469.03,452.28,474.39,453.12,476.63,456.81z"/>
<path class="st3" d="M850.77,481.36c-3.02,1.71-7.77-0.98-10.62-6.01c-2.84-5.03-2.7-10.49,0.32-12.2
	c3.02-1.71,7.77,0.98,10.62,6.01C853.93,474.2,853.79,479.66,850.77,481.36z"/>
<path class="st0" d="M341.08,526.42l-9.82-0.34c-12.56-3.25-22.36-9.97-27.29-22c-4.45-10.86,0.94-22.9,11.31-28.06
	c10.95-5.45,25.19-5.21,36.66-1.74c10.09,3.05,22.72,13.12,21.41,24.85c-1.14,10.11-9.74,19.07-18.7,22.93
	C350.72,523.75,346.2,525.21,341.08,526.42z M317.72,484.42c-5.59,6.12,3.64,10.56,9,9.73c4.04-0.01,10.19-1.6,11.24-6.17
	c1-4.34-2.13-7.55-6.24-8.38C325.87,478.42,321.2,480.03,317.72,484.42z"/>
<path class="st2" d="M184.3,519.09c-1.25-1.31-2.71-2.75-4.36-4.32c-1.55-1.47-2.98-4.64-5.54-3.39l-1.79-16
	c0.41,0.15,0.77-0.02,1.09-0.5c0.17-0.25,0.27-0.6,0.3-1.07c0.18-2.71,0.94-4.94,2.28-6.67c1.47-1.69,2.79-3.29,4.7-4.48
	c11.98-7.45,26.94-8,40.6-5.61c2.6,0.45,4.46,1.96,6.74,3.22c1.13,0.62,2.76,1.3,4.89,2.05c2.3,0.8,3.88,1.63,4.74,2.48
	c6.03,6.01,9.24,9.82,8.67,18.83c-1.71,27.35-40.55,22.71-56.86,16.97c-0.46-0.16-1.31-0.57-2.54-1.24
	C185.91,518.65,184.94,518.56,184.3,519.09z"/>
<path class="st7" d="M326.72,494.15c-5.72-1.59-8.72-4.83-9-9.73c3.48-4.39,8.15-6,14-4.82c4.11,0.83,7.24,4.04,6.24,8.38
	C336.91,492.55,330.76,494.14,326.72,494.15z"/>
<path class="st5" d="M317.72,484.42c0.28,4.9,3.28,8.14,9,9.73C321.36,494.98,312.13,490.54,317.72,484.42z"/>
<path class="st6" d="M880.56,492.35c7.65,20.57,12.12,41.67,13.4,63.29c1.39,23.6,0,48.25-5.1,71.55
	c-7.99,36.51-21.77,70.78-41.34,102.8c-12.25,20.04-27.39,36.15-45.4,48.34c-17.89,12.1-38.47,17.89-61.75,17.36
	c2.33-6.2,8.29-19.61-1.4-22.1c-5.19-1.33-8.14,4.59-8.93,8.82c-0.78,4.16-1.52,8.28-2.23,12.35l-12.76-2.93l-2.64-19.63
	c5.55-0.42,11.17-1.6,16.85-3.53c16.6-5.65,32.57-12.73,47.9-21.24c19.88-11.03,37.7-26.62,49.54-46.18
	c6.47-10.67,10.25-21.42,11.34-32.24c0.91-9.04,1.7-19.69,0.09-28.66l-0.05-0.42c-0.07-0.59,0.71-0.86,1.02-0.36
	c8.03,13.01,19.35,0.67,23.81-7.19c12.02-21.2,14.79-44.66,16.52-68.51c0.1-1.42,0.62-2.93,0.94-4.35c0.71-3.08,0.43-6.77,0.43-9.93
	c0-2.61,1.03-6.37,0-9.8c1.09-2.57,1.68-4.28,1.76-5.14c1.04-10.51,0.45-20.9-1.77-31.18c-0.58-2.66,0.02-4.72,0.27-7.35
	c0.03-0.33-0.04-0.64-0.19-0.93c-0.28-0.51-0.5-1.04-0.65-1.58C879.96,492.7,880.07,492.28,880.56,492.35z"/>
<path class="st2" d="M551.1,527.96c15.94,13.07,13.62,32.38-6.6,39.15c-16.16,5.4-32.37,5.78-48.64,1.13
	c-11.67-3.34-23.03-12.61-23.33-25.74c-0.34-15.5,15.16-24.71,28.71-26.67C518.65,513.31,537.1,516.48,551.1,527.96z"/>
<path class="st1" d="M937.23,538.7c-2.11,3.37-3.59,5.39-4.44,6.06c-6.99,5.49-15.06,8.17-23.85,9.61
	c-1.03-11.11-2.8-22.1-5.29-32.99c-0.32-1.4-0.58-2.84-0.78-4.33c-0.03-0.28,0.21-0.5,0.49-0.45
	C916.64,519.22,929.91,526.96,937.23,538.7z"/>
<path class="st8" d="M341.08,526.42c0.07,8.46,3.92,14.14,11.55,17.05c7.01,2.67,11.9,1.1,17.76-3.08c5.05-3.6,9.29,1.84,5.68,6.64
	c-4.84,6.47-15.58,8.27-22.66,6.88c-6.11-1.21-11.83-4.47-17.17-9.79c-0.26-0.26-0.53-0.27-0.8-0.02
	c-9.01,8.22-23.62,5.41-31.07-3.69c-1.82-2.22-4-6.24-2.52-9.11c3.06-5.92,7.39,1.02,9.4,3.27c3.43,3.87,7.32,5.48,11.66,4.82
	c6.95-1.04,8.82-7.23,8.35-13.31L341.08,526.42z"/>
<path class="st3" d="M880.8,539.79c1.03,3.43,0,7.19,0,9.8c0,3.16,0.28,6.85-0.43,9.93c-0.32,1.42-0.84,2.93-0.94,4.35
	c-1.73,23.85-4.5,47.31-16.52,68.51c-4.46,7.86-15.78,20.2-23.81,7.19c-0.31-0.5-1.09-0.23-1.02,0.36l0.05,0.42
	c-1.14-3.44-3.54-11.25-0.71-14.5c10.15-11.66,16.96-25.57,20.45-41.73c3.25-15.06,4.89-30.3,4.93-45.73
	c0.01-2.09,0.17-4.17,0.5-6.24c0.06-0.37,0.26-0.51,0.59-0.4c0.1,0.03,0.19,0.1,0.24,0.2c1.78,3.47,3.78,7.77,6.64,10.05
	C874.38,544.87,877.73,544.13,880.8,539.79z"/>
<path class="st3" d="M937.23,538.7c4.58,9.33-1.03,14.43-7.02,20.21c-1.67,1.61-1.89,3.6-0.68,5.97c0.13,0.25,0.33,0.47,0.57,0.61
	c4.09,2.37,7.5,4.59,8.3,9.68c0.79,4.94-0.37,9.52-3.48,13.74c-1.35-1.05-3.43-2.26-6.24-3.61c-7.21-3.46-11.63-10.2-16.32-16.59
	c-0.71-0.97-1.71-1.23-3-0.78l-0.42-13.56c8.79-1.44,16.86-4.12,23.85-9.61C933.64,544.09,935.12,542.07,937.23,538.7z"/>
<path class="st6" d="M909.36,567.93c1.29-0.45,2.29-0.19,3,0.78c4.69,6.39,9.11,13.13,16.32,16.59c2.81,1.35,4.89,2.56,6.24,3.61
	c-6.6,10.17-15.78,16.58-27.55,19.24c-0.26,0.06-0.49-0.17-0.45-0.43C908.95,594.54,909.34,581.23,909.36,567.93z"/>
<path class="st3" d="M777.72,629.92c-3.09,0.71-6.59-3.02-7.81-8.34c-1.22-5.31,0.3-10.19,3.4-10.9c3.09-0.71,6.59,3.02,7.81,8.34
	C782.34,624.33,780.82,629.21,777.72,629.92z"/>
<path class="st3" d="M746.84,629.12c-2.45-0.06-4.35-3.3-4.25-7.24c0.1-3.93,2.16-7.08,4.6-7.02c2.45,0.06,4.35,3.3,4.25,7.24
	C751.35,626.04,749.29,629.19,746.84,629.12z"/>
<path class="st3" d="M684.4,722.21c-3.06-4.9-6.53-10.08-12.63-8.61c-0.29,0.07-0.46,0.25-0.52,0.54c-1.25,6.58,1.24,13.78,2,20.85
	l-11.33-8.59c-0.27-0.2-0.57-0.3-0.9-0.3c-1.47,0.02-2.67-0.05-3.6-0.21c-0.41-0.07-0.76-0.28-1.05-0.63
	c-0.2-0.23-0.45-0.35-0.76-0.35c-1.75,0.01-3.29-0.81-4.52-1.14c-2.8-0.77-5.53-1.7-8.2-2.81c-1.38-0.58-2.33-2.15-4.48-1.67
	c-0.11,0.02-0.12-0.01-0.05-0.09c0.06-0.07,0.12-0.13,0.19-0.18c0.45-0.37,0.32-0.54-0.38-0.5c-0.42,0.03-0.76-0.15-1.02-0.52
	c-0.16-0.23-0.37-0.4-0.63-0.51c-3.27-1.35-5.72-1.94-7.35-1.75c-1.61,0.19-2.93,0.2-3.98,0.03c-1.11-0.17-1.92,0.12-2.44,0.89
	c-0.11,0.17-0.04,0.4,0.14,0.47c0.18,0.07,0.32,0.03,0.41-0.11c0.18-0.26,0.55,0.01,0.5,0.36c-0.05,0.31,0,0.58,0.15,0.79
	c0.13,0.18,0.08,0.29-0.14,0.32c-1.15,0.19-2.24,0.53-3.27,1.02c-0.89,0.43-2.6,0.39-5.11-0.12c-0.35-0.07-0.54,0.07-0.56,0.43
	c-0.04,0.65-0.38,1.04-1.02,1.17c4.04-9.17,7.24-16.58,11.62-27.66c2.22-5.61,6.27-18.64,12.63-20.41c3.61-1.01,6.8,1.64,7.31,5.22
	c0.85,6.01-0.71,12.15-0.35,18.34c0.03,0.41,0.46,0.65,0.82,0.47c6.6-3.35,12.25-9.51,16.98-14.98c0.87-1,2.47-0.83,3.11,0.33
	c4.46,8.14,7.01,14.77,12.72,24.36C682.12,712.41,684.03,717.59,684.4,722.21z"/>
<path class="st4" d="M370.27,750.71c-3.28,2.3-5.24,12.53-6.08,16.45c-0.09,0.42-0.55,0.65-0.94,0.48
	c-3.91-1.7-7.33-6.48-8.93-10.25c-3.04-7.2-2.14-17.41-0.41-25c4.31-18.94,10.43-37.47,16.83-55.77c0.08-0.23,0.4-0.25,0.52-0.04
	c9.32,16.08,22.36,31.58,42.9,30.76c0.7-0.03,1.31,0.29,1.84,0.95c6.74,8.49,13.69,17.65,23.15,22.1c4.07,1.91,7.41,2.83,10.01,2.74
	c4.95-0.17,9.28-0.72,14.14,1.03c0.66,0.23,1,0.95,0.78,1.62c-4.7,14.1-16.93,24.85-29.86,31.12c-16.75,8.13-38.04,8.82-56.32,5.63
	c-0.57-0.1-0.9-0.72-0.66-1.26c2.37-5.31,7.01-16.54,0.98-20.89C375.77,748.61,373.12,748.72,370.27,750.71z"/>
<path class="st9" d="M348.89,694.83c-5.88,19.39-10.15,31.74-11.45,49.07c-2.1,27.7,18.14,41.33,42.74,44.38
	c22.82,2.83,46.4,0.44,66.72-10.86c0.32-0.18,0.71,0.08,0.67,0.44c-0.68,6.15-0.95,12.8,0.55,18.65
	c7.06,27.71,44.02,37.8,68.56,37.63c42.7-0.29,82.65-17.6,110.23-50.32c0.21-0.25,0.48-0.39,0.81-0.4
	c6.31-0.17,12.62-0.43,18.93-0.78c10.21-0.55,20.04-2.44,29.5-5.68c0.36-0.13,0.76,0.05,0.91,0.41
	c7.7,18.71,23.64,28.65,43.02,31.84c73.86,12.12,123.58-34.93,153.57-96.22c6.21,3.71,13.01,8.97,20.39,15.78
	c7.93,7.31,14.38,15.93,19.33,25.86c13.94,27.98-13.46,44.76-34.15,54.33c-17.96,8.31-37.23,15.53-57.82,21.64
	c-32.63,9.69-64.46,17.14-95.48,22.33c-29.81,4.98-62.81,8.3-99.01,9.96c-46.3,2.11-92.55,1.53-138.76-1.75
	c-30.64-2.17-61.5-6.34-90.23-11.78c-23.92-4.53-51.18-11.5-75.84-20.26c-16.81-5.97-30.84-11.64-45.08-20.79
	c-9.73-6.26-21.6-16.87-22.8-28.91c-0.53-5.23,0.43-11.68,2.33-16.83c11.35-30.76,49.24-48.52,76.29-61.78
	C338.24,698.13,343.6,696.14,348.89,694.83z"/>
<path class="st6" d="M673.25,734.99c0.36,1.83,0.59,4.22,0.68,7.15c0.19,6.58,0.36,13.13,0.5,19.66c0.01,0.25-0.15,0.47-0.39,0.55
	c-12.51,3.89-25.85,6.53-38.99,6.38c-0.36,0-0.58-0.39-0.4-0.7c2.81-4.84,11.1-22.35,1.68-25.04c-3.71-1.06-6.2,3.82-7.8,7.43
	c-4.99,11.29-10.36,21.61-18.78,30.3c-21.38,22.05-47.04,33.14-77.33,37.21c-8.49,1.14-16.66,1.25-24.5,0.34l6.67-1.58
	c0.29-0.07,0.55-0.18,0.8-0.35c1.02-0.67,1.37-1.04,2.71-1.11c8.46-0.39,14.76-2.21,21.56-4.22c9.87-2.91,16.66-8.16,23.13-16.01
	c1.76-2.13,3.52-5.07,5.49-7.5c1.44-1.79,1.32-3.34-0.35-4.67c5.37-3.89,10.28-8.38,14.71-13.48
	c13.05-15.01,22.85-30.77,31.21-48.36c0.64-0.13,0.98-0.52,1.02-1.17c0.02-0.36,0.21-0.5,0.56-0.43c2.51,0.51,4.22,0.55,5.11,0.12
	c1.03-0.49,2.12-0.83,3.27-1.02c0.22-0.03,0.27-0.14,0.14-0.32c-0.15-0.21-0.2-0.48-0.15-0.79c0.05-0.35-0.32-0.62-0.5-0.36
	c-0.09,0.14-0.23,0.18-0.41,0.11c-0.18-0.07-0.25-0.3-0.14-0.47c0.52-0.77,1.33-1.06,2.44-0.89c1.05,0.17,2.37,0.16,3.98-0.03
	c1.63-0.19,4.08,0.4,7.35,1.75c0.26,0.11,0.47,0.28,0.63,0.51c0.26,0.37,0.6,0.55,1.02,0.52c0.7-0.04,0.83,0.13,0.38,0.5
	c-0.07,0.05-0.13,0.11-0.19,0.18c-0.07,0.08-0.06,0.11,0.05,0.09c2.15-0.48,3.1,1.09,4.48,1.67c2.67,1.11,5.4,2.04,8.2,2.81
	c1.23,0.33,2.77,1.15,4.52,1.14c0.31,0,0.56,0.12,0.76,0.35c0.29,0.35,0.64,0.56,1.05,0.63c0.93,0.16,2.13,0.23,3.6,0.21
	c0.33,0,0.63,0.1,0.9,0.3L673.25,734.99z"/>
<path class="st8" d="M712.41,772.2l2.64,19.63c-5.51-0.47-10.33-2.41-14.46-5.82c-0.41-4.84-2.01-12.57,1.67-15.83
	C705.81,767.03,709.78,768.96,712.41,772.2z"/>
<path class="st8" d="M740.37,795.69c-4.37,0.25-8.55-0.06-12.56-0.93c0.71-4.07,1.45-8.19,2.23-12.35
	c0.79-4.23,3.74-10.15,8.93-8.82C748.66,776.08,742.7,789.49,740.37,795.69z"/>
<path class="st3" d="M567.93,782.83c1.67,1.33,1.79,2.88,0.35,4.67c-1.97,2.43-3.73,5.37-5.49,7.5
	c-6.47,7.85-13.26,13.1-23.13,16.01c-6.8,2.01-13.1,3.83-21.56,4.22c-1.34,0.07-1.69,0.44-2.71,1.11c-0.25,0.17-0.51,0.28-0.8,0.35
	l-6.67,1.58l-0.73-0.22c-0.13-0.11-0.1-0.3,0.11-0.56c3.08-3.73,9.41-11.13,5.21-15.79c2.47,0.9,5.39,0.91,8.76,0.02
	C538.21,797.27,553.02,791.07,567.93,782.83z"/>
<path class="st8" d="M485.6,788.16c1.31,5.95-3.82,15.58-5.63,21.49c-4.63-1.13-8.42-3.34-11.37-6.61c0.49-3.87,1.37-7.51,2.62-10.9
	C473.61,785.65,479.96,781.08,485.6,788.16z"/>
<path class="st3" d="M485.6,788.16c1.12-0.05,2.81,0.11,5.07,0.48c7.07,1.15,11.48,2.14,13.23,2.95c3.71,1.72,5.67,4.48,5.88,8.27
	c-9.21-2.07-13.27,8.71-16.07,15.25c-4.84-1.08-9.42-2.9-13.74-5.46C481.78,803.74,486.91,794.11,485.6,788.16z"/>
<path class="st8" d="M509.78,799.86c1,0.44,1.91,1.05,2.73,1.84c4.2,4.66-2.13,12.06-5.21,15.79c-0.21,0.26-0.24,0.45-0.11,0.56
	c-4.79-0.15-9.29-1.13-13.48-2.94C496.51,808.57,500.57,797.79,509.78,799.86z"/>
</svg>
